<svg height="207" viewBox="0 0 400 207" width="400" xmlns="http://www.w3.org/2000/svg"><g fill="none"><ellipse cx="199.792261" cy="178.952162" fill="#e6e6e6" rx="199.792261" ry="5.588593"/><path d="m306.267447 118.396076c-.252292.003461-.504562.006922-.760292.006922s-.508-.003461-.760288-.006922c-13.374116-.304112-23.067748-8.660337-20.600274-17.427806l6.016629-21.3882161 1.520576-5.4118382 26.955573.459609 1.638067 5.2943551 6.448611 20.8387462c2.73009 8.815834-6.963546 17.331038-20.458602 17.63515z" fill="#3f3d56"/><path d="m320.277425 79.9221798c-9.358844 5.3497555-20.879329 5.2188719-30.114216-.3421259l1.520575-5.4118382 26.955573.459609z" fill="#000" opacity=".2"/><g fill="#3f3d56"><path d="m319.139735 101.677964c1.164436-4.3397752 4.991501-10.6001348 15.724301-18.1482786 18.718139-13.1659641 7.551964-23.0378652 7.068108-23.4515056-1.015038-.8676-.865128-1.8417663.348535-2.1746158 1.426403-.2851412 2.906463.0593519 4.060341.9450697.606036.5013079 14.588441 12.4417663-6.53351 27.2962562-19.009025 13.3705663-14.967357 22.0984901-14.920989 22.1822251.509398.933483-.307415 1.680368-1.826067 1.67041-1.518652-.010159-3.163717-.774338-3.67471-1.706842-.107461-.197276-1.330652-2.572665-.246009-6.612719z"/><path d="m293.066121 121.513254c-.824896 0-1.61601-.327666-2.1993-.910956-.58329-.583289-.910956-1.374404-.910956-2.1993v-13.477789c0-1.717748 1.39251-3.110258 3.110259-3.110258 1.717748 0 3.110258 1.39251 3.110258 3.110258v13.477789c0 .824897-.327667 1.616012-.910957 2.199302-.583291.583289-1.374407.910954-2.199304.910954z"/><path d="m295.79316 89.516364c-.344769.7493928-.973119 1.3311283-1.746814 1.6172254-.773694.2860971-1.629353.253119-2.378733-.0916793l-12.244044-5.6333258c-1.558575-.7190857-2.239983-2.5648313-1.522551-4.124168s2.562454-2.2427021 4.122551-1.5269242l12.244044 5.6333259c.749393.3447688 1.331129.9731187 1.617226 1.7468133s.253119 1.6293536-.091679 2.3787327z"/><path d="m315.221142 89.516364c.344768.7493928.973118 1.3311283 1.746813 1.6172254s1.629353.253119 2.378733-.0916793l12.244045-5.6333258c1.560505-.7179703 2.243515-2.5650401 1.525545-4.125546-.71797-1.5605058-2.565039-2.2435161-4.125545-1.5255462l-12.244045 5.6333259c-.749392.3447697-1.331127.9731196-1.617224 1.7468139s-.253119 1.6293528.091678 2.3787321z"/><path d="m317.948144 121.513254c.824896 0 1.616012-.327665 2.199301-.910955.58329-.583289.910955-1.374405.910955-2.199301v-13.477789c0-1.717747-1.392509-3.110256-3.110256-3.110256s-3.110256 1.392509-3.110256 3.110256v13.477789c0 .824896.327664 1.616012.910954 2.199301.58329.58329 1.374405.910955 2.199302.910955z"/><path d="m330.946301 34.2582742c.543748-.6847633.768434-1.5694997.617303-2.4307326l-1.692759-9.9582023-1.69276-9.9582022c-.186019-1.0943146-.941718-2.00626266-1.982432-2.39232201-1.040715-.38605936-2.208334-.18757837-3.063028.52067701l-7.777668 6.4450742-4.685784 3.8829258c-3.124969-.5556808-6.319096-.6038419-9.459398-.1426292l-4.513667-3.7402966-7.777672-6.4450697c-.854694-.70825302-2.022312-.90673257-3.063025-.52067344-1.040712.38605913-1.796411 1.29800554-1.982431 2.39231844l-1.69276 9.9582022-1.692759 9.9582023c-.090391.5233776-.043716 1.0612431.135478 1.5612269-8.030863 12.3113694-5.853862 28.6444214 5.121262 38.4225203 10.975125 9.7780988 27.450163 10.0627606 38.756534.6696497 11.306372-9.393111 14.046321-25.6412061 6.445566-38.2226643z"/></g><path d="m288.139016 14.1202517c-.184449.0002649-.367368.0334662-.540144.0980404-.517291.1883049-.892661.6411615-.981744 1.1844045l-2.052732 12.0762113c-.092075.5417956.111889 1.0915568.535061 1.4421931.423172.3506362 1.001261.4488775 1.516507.257717l11.484598-4.260409c.515173-.1911222.889258-.6425564.981353-1.1842658.092096-.5417094-.111789-1.0914036-.534859-1.4420353l-.000171-.0003416-9.431681-7.815636c-.273687-.22927-.61916-.3552151-.976188-.3558786z" fill="#e6e6e6"/><path d="m323.912049 14.1202517c-.357025.0006656-.702494.1266105-.976179.3558786l-9.431852 7.8159776c-.42307.350631-.626955.9003246-.534861 1.4420339s.466179.993144.981351 1.1842672l11.484602 4.260409c.515246.1911605 1.093335.0929192 1.516507-.257717.423172-.3506363.627137-.9003975.535062-1.4421931l-2.052751-12.0762113c-.08908-.5432431-.464448-.9961007-.981739-1.1844045-.172775-.0645737-.355692-.097775-.54014-.0980404z" fill="#e6e6e6"/><circle cx="305.507155" cy="53.778746" fill="#e6e6e6" r="4.147011"/><ellipse cx="305.507155" cy="51.70524" fill="#3f3d56" rx="2.764674" ry="1.036751"/><path d="m303.433636 56.1978337h3.80142v4.6653888c0 .5040996-.200253.9875527-.556705 1.344005s-.839905.5567051-1.344005.5567051-.987553-.2002528-1.344005-.5567051-.556705-.8399054-.556705-1.344005z" fill="#ff6584"/><path d="m305.737879 9.15933483c-.199326.41337528-.392872.83122697-.574904 1.25761797-2.144717 5.0018645-2.867999 10.4984475-2.090251 15.8848719.389096-.5645303.798004-1.1526786 1.213932-1.7473078-.890774-5.1695921-.389896-10.4831111 1.451223-15.39518207z" fill="#3f3d56"/><path d="m308.848148 12.960764c-.199326.4133753-.392876.8312225-.574903 1.2576135-2.144721 5.0018682-2.868004 10.4984562-2.090256 15.8848854.389101-.5645258.798004-1.1526786 1.21391-1.7473033-.890768-5.1695989-.389881-10.4831229 1.451249-15.3951956z" fill="#3f3d56"/><path d="m318.437303 87.5904539-.438152-5.5721618-.438153-5.5721752c-.048145-.6123378-.419314-1.1524752-.973689-1.4169437s-1.207732-.2130881-1.713952.1347864l-4.60657 3.1655325-3.363857 2.3115731c-.435094-.5094244-1.071439-.8027814-1.741379-.8027814-.669941 0-1.306286.293357-1.74138.8027814l-3.363861-2.3115731-4.606548-3.165555c-.50622-.3478744-1.159577-.3992548-1.713952-.1347864-.554375.2644685-.925544.8046059-.973689 1.4169437l-.438152 5.5721753-.438153 5.5721618c-.048149.612333.234036 1.203839.740259 1.5517019.506222.3478629 1.159575.3992336 1.713943.134761l5.04471-2.4066247 4.145002-1.9774248c.430795.4365176 1.018523.6822375 1.631818.6822375.613296 0 1.201024-.2457199 1.631818-.6822375l4.145007 1.9774248 5.04471 2.4066247c.554366.2644789 1.20772.2131149 1.713947-.1347436.506226-.3478584.788417-.9393627.740273-1.5516969z" fill="#05f"/><circle cx="299.977807" cy="49.286148" fill="#e6e6e6" r="1.036751"/><circle cx="311.036503" cy="49.286148" fill="#e6e6e6" r="1.036751"/><path d="m104.910283 109.236746c.252288.003461.504557.006917.760288.006917.25573 0 .508-.003456.760287-.006917 13.374117-.304117 23.067749-8.660342 20.600275-17.4278112l-6.01663-21.3882112-1.520561-5.4118427-26.9555735.4596135-1.6380629 5.294355-6.4486157 20.8387461c-2.7301034 8.8158245 6.9635326 17.3310295 20.4585931 17.6351505z" fill="#3f3d56"/><path d="m90.9003056 70.7628449c9.3588434 5.3497555 20.8793284 5.218872 30.1142154-.3421258l-1.520579-5.4118382-26.9555735.4596135z" fill="#000" opacity=".2"/><path d="m88.7639461 89.983627c-2.9094337-3.4241349-9.047245-7.444818-21.9776764-9.6744719-22.5516585-3.8902697-16.6835506-17.5907551-16.423227-18.171654.5461753-1.2184944-.0061618-2.0348224-1.2455326-1.8163371-1.411232.3526359-2.6015399 1.2973154-3.2654427 2.5915956-.3332449.7124179-7.861573 17.487582 17.5852 21.8753932 22.9021169 3.9507236 22.9838202 13.5686787 22.9777438 13.6642023-.0609752 1.0616674.9968809 1.3872179 2.3651776.7282966 1.3682966-.6589214 2.5281483-2.0535281 2.5909842-3.1150023.0127146-.2242876.1018427-2.8946292-2.6072269-6.0820224z" fill="#3f3d56"/><path d="m118.111604 112.353919c.824898 0 1.616014-.327665 2.199304-.910956s.910953-1.374407.910953-2.199305v-13.4777838c-.002063-1.7162884-1.393969-3.1065219-3.110259-3.1065219-1.716289 0-3.108195 1.3902335-3.110258 3.1065219v13.4777838c0 .824898.327665 1.616015.910956 2.199305.58329.583291 1.374407.910956 2.199304.910956z" fill="#3f3d56"/><path d="m115.384557 80.3570292c.344769.7493927.973119 1.3311283 1.746814 1.6172254.773694.2860971 1.629353.2531189 2.378732-.0916793l12.244045-5.6333259c1.010677-.4637022 1.696914-1.4316935 1.799892-2.5388898s-.392971-2.1851399-1.300797-2.8272777c-.907825-.6421378-2.089403-.7507697-3.099095-.2849246l-12.244045 5.6333258c-.749392.3447688-1.331128.9731187-1.617225 1.7468134-.286097.7736946-.253119 1.6293536.091679 2.3787327z" fill="#3f3d56"/><path d="m95.9565843 80.3570292c-.3447688.7493927-.9731187 1.3311283-1.7468133 1.6172254-.7736947.2860971-1.6293537.2531189-2.3787328-.0916793l-12.2440449-5.6333259c-1.0106772-.4637022-1.6969139-1.4316935-1.7998917-2.5388898-.1029777-1.1071963.3929713-2.1851399 1.3007968-2.8272777s2.0894036-.7507697 3.0990949-.2849246l12.2440449 5.6333258c.7493927.3447688 1.3311283.9731187 1.6172254 1.7468134.2860971.7736946.2531189 1.6293536-.0916793 2.3787327z" fill="#3f3d56"/><path d="m93.229564 112.353919c-.8248971 0-1.6160133-.327665-2.1993032-.910956s-.9109529-1.374407-.9109529-2.199305v-13.4777838c.0020631-1.7162884 1.3939688-3.1065219 3.1102584-3.1065219s3.1081953 1.3902335 3.1102584 3.1065219v13.4777838c0 .824898-.3276652 1.616015-.9109558 2.199305-.5832907.583291-1.3744073.910956-2.1993049.910956z" fill="#3f3d56"/><path d="m130.554787 24.2294337c.179194-.4999838.225869-1.0378493.135478-1.561227l-1.692759-9.9582022-1.69276-9.95820225c-.186019-1.09431369-.941717-2.00626137-1.98243-2.39232151-1.040713-.38606014-2.208331-.1875811-3.063026.52067207l-7.777672 6.44507416-4.513667 3.74028313c-3.140302-.4612128-6.334429-.4130516-9.459398.1426292l-4.6857845-3.88292582-7.7776674-6.44507415c-.8546947-.70825554-2.0223151-.90673602-3.0630295-.52067565-1.0407143.38606036-1.7964129 1.29800971-1.9824312 2.39232508l-1.692773 9.95821574-1.6927595 9.9582022c-.1511272.8612328.0735582 1.7459681.6173033 2.4307326-7.6105851 12.5845718-4.8740824 28.842807 6.4368007 38.2426144 11.310883 9.3998073 27.7953461 9.1149827 38.7747481-.6699645 10.979402-9.7849471 13.152607-26.128014 5.111813-38.4421555z" fill="#3f3d56"/><path d="m122.062535 5.31679551-9.431681 7.81563599-.000171.000337c-.423072.3506314-.626958.900327-.534863 1.4420381.092096.541711.466183.9931462.981358 1.1842676l11.484602 4.2604045c.515245.1911604 1.093335.0929192 1.516507-.2577171.423172-.3506362.627136-.9003974.535061-1.4421931l-2.05275-12.0762112c-.089086-.5432409-.464455-.99609506-.981744-1.1844-.172775-.06457639-.355695-.09777776-.540144-.09804045-.357024.00066742-.70249.12661221-.976175.35587866z" fill="#e6e6e6"/><path d="m86.7255371 5.0589573c-.5172916.18830172-.8926617.64115747-.9817438 1.1844l-2.0527506 12.0762112c-.0920749.5417957.1118895 1.0915569.5350615 1.4421931.423172.3506363 1.0012615.4488775 1.516507.2577171l11.4846023-4.2604045c.515172-.1911246.8892559-.64256.9813503-1.1842698.0920943-.5417097-.1117908-1.0914038-.5348604-1.4420359l-9.4318517-7.81597299c-.2736856-.22926811-.6191543-.35521305-.9761798-.35587866-.1844459.00026328-.3673624.03346465-.5401348.09804045z" fill="#e6e6e6"/><circle cx="105.670571" cy="44.619411" fill="#e6e6e6" r="4.147011"/><ellipse cx="105.670571" cy="42.545906" fill="#3f3d56" rx="2.764674" ry="1.036751"/><path d="m105.843362 47.0384899c.504102 0 .987557.2002523 1.344011.5567067.356453.3564543.556703.8399104.556703 1.3440124v4.6653888h-3.801424v-4.6653888c0-.5041012.200249-.9875566.556702-1.3440108.356452-.3564543.839907-.5567083 1.344008-.5567083z" fill="#ff6584" transform="matrix(-1 0 0 -1 211.686728 100.643088)"/><path d="m105.439838 0c.199326.41337528.392872.83122247.574904 1.25761348 2.144717 5.00186598 2.867999 10.49845052 2.090251 15.88487642-.389096-.5645303-.798-1.1526787-1.213932-1.7473079.890774-5.1695921.389896-10.48311102-1.451223-15.395182z" fill="#3f3d56"/><path d="m102.329578 3.80142472c.19933.41337977.392876.83122697.574907 1.25761798 2.144715 5.0018651 2.867997 10.4984475 2.090252 15.8848719-.389097-.5645258-.798004-1.1526786-1.213933-1.7473079.890775-5.1695924.389896-10.48311175-1.451226-15.39518198z" fill="#3f3d56"/><path d="m92.7404225 17.9538517.4381528-5.5721618.4381528-5.5721708c.0481428-.61233858.4193113-1.15247735.9736867-1.41694689.5543755-.26446953 1.207733-.21308959 1.7139537.13478509l4.6065705 3.16553708 3.363861 2.31157302c.435092-.5094269 1.071437-.802786 1.741378-.802786.66994 0 1.306285.2933591 1.741377.802786l3.363861-2.31157302 4.606571-3.16553708c.50622-.34787468 1.159578-.39925462 1.713953-.13478509.554376.26446954.925544.80460831.973687 1.41694689l.438153 5.5721708.438153 5.5721618c.04815.6123325-.234034 1.2038386-.740256 1.5517023-.506222.3478638-1.159573.399236-1.713942.1347651l-5.044755-2.4066292-4.145007-1.9774247c-.430793.4365209-1.018521.6822431-1.631818.6822431s-1.201025-.2457222-1.631818-.6822431l-4.145007 1.9774247-5.0447098 2.4066517c-.5543725.2644734-1.2077294.2130992-1.7139526-.1347703-.5062233-.3478694-.7884039-.9393832-.7402451-1.5517196z" fill="#05f"/><path d="m110.163164 40.1268135c0 .5725843.464171 0 1.036755 0s1.036751.5725843 1.036751 0c-.001191-.57174-.465012-1.0345965-1.036753-1.0345965s-1.035563.4628565-1.036753 1.0345965z" fill="#e6e6e6"/><path d="m101.177978 40.1268135c0 .5725843-.464171 0-1.036756 0-.5725838 0-1.0367501.5725843-1.0367501 0 .0011904-.57174.4650116-1.0345965 1.0367531-1.0345965.571741 0 1.035562.4628565 1.036753 1.0345965z" fill="#e6e6e6"/><path d="m216.202247 118.404944v-6.590113h-32.950112v.412135 6.177978 53.132135 6.590112h6.590112 26.36v-6.590112h-26.36v-53.132135z" fill="#3f3d56"/><path d="m232.265407 111.81498v66.312103h32.950112v-66.312103zm26.360081 59.722067h-19.770068v-53.132022h19.770068z" fill="#05f"/><path d="m140.828764 171.537079v-59.310113h-6.590112v59.310113 6.590112h6.590112 26.36v-6.590112z" fill="#05f"/><path d="m119.411236 118.404944v-6.590113h-32.9501124v.412135 6.177978 23.065168 6.590113 23.476854 6.590112h6.5901124 26.36v-6.590112h-26.36v-23.476854h26.36v-6.590113h-26.36v-23.065168z" fill="#3f3d56"/><path d="m377.245843 118.404944v-6.590113h-32.950113v.412135 6.177978 23.065168 6.590113 23.476854 6.590112h6.590113 26.36v-6.590112h-26.36v-23.476854h26.36v-6.590113h-26.36v-23.065168z" fill="#05f"/><path d="m64.2197753 112.226966v54.465169l-17.3757304-17.375281-.0395505.04-.036854-.036854-17.763146 17.763146v-55.062022h-6.5901124v65.900224h6.5901124v-1.518651l17.803146-17.803146 17.4121349 17.412584v2.115056h6.5901123v-65.900225z" fill="#3f3d56"/><path d="m322.466517 112.226966v1.518203l-17.803146 17.803146-17.412584-17.412135v-2.115056h-6.590113v65.900224h6.590113v-54.465618l17.37573 17.375731.04-.04.036404.036404 17.763596-17.763146v55.062472h6.589663v-65.900225z" fill="#3f3d56"/><g fill="#05f"><circle cx="150.595757" cy="67.586301" r="4.044944"/><circle cx="50.820476" cy="112.530121" r="4.044944"/><circle cx="130.820476" cy="202.417762" r="4.044944"/><circle cx="232.39351" cy="79.721133" r="4.044944"/><circle cx="351.494634" cy="198.822256" r="4.044944"/><circle cx="355.539578" cy="92.75484" r="4.044944"/><circle cx="304.303622" cy="165.563829" r="4.044944"/></g></g></svg>